<?xml version="1.0" encoding="utf-8"?>
<!-- Generator: Adobe Illustrator 27.9.0, SVG Export Plug-In . SVG Version: 6.00 Build 0)  -->
<svg version="1.1" id="Capa_1" xmlns="http://www.w3.org/2000/svg" xmlns:xlink="http://www.w3.org/1999/xlink" x="0px" y="0px"
	 viewBox="0 0 100 100" style="enable-background:new 0 0 100 100;" xml:space="preserve">
<polygon points="41.9,5.1 53.7,32 28.1,13.9 "/>
<polygon points="28.1,13.9 53.3,33.2 18.7,35 "/>
<polygon points="18.7,35 53.3,34.4 26,54.6 "/>
<polygon points="53.2,35.9 44.5,72.6 26,54.6 "/>
<polygon points="50.6,51.9 51.8,94.9 44.5,72.6 "/>
<polygon points="51.8,94.9 51.8,53.9 58.1,82.9 "/>
<polygon points="67.5,11.1 41.9,5.1 63.9,5.9 "/>
<path d="M41.9,5.1l16.3,33.7l5.5-4.9l-4.4-4.9l0,0c0,0-0.1-0.1-0.1-0.2c0,0,0,0,0,0c0,0-0.1-0.1-0.1-0.1c0,0-0.1-0.1-0.1-0.2
	c0,0-0.1-0.1-0.1-0.1c0,0,0,0,0,0c0,0-0.1-0.1-0.1-0.1c-0.1,0-0.1-0.1-0.1-0.2c0,0,0,0,0,0c-0.1-0.1-0.1-0.1-0.2-0.2
	c-0.1-0.1-0.2-0.1-0.3-0.2c-0.1-0.1-0.1-0.1-0.2-0.2c0,0-0.1-0.1-0.1-0.1c-0.1-0.1-0.1-0.1-0.2-0.2l0,0l-3-3.3L72,22.2l-2.7,6
	l12-11.9L41.9,5.1z M58.9,13l4.7-0.4l3.3,3.4L58.9,13z"/>
</svg>
